<svg width="512" height="512" viewBox="0 0 512 512" xmlns="http://www.w3.org/2000/svg">
  <!-- Tide Icon: Minimalist Egg Shell with Horizontal Security Layers -->
  
  <!-- Background (Transparent for app icons) -->
  <rect width="512" height="512" fill="transparent"/>

  <!-- Definitions -->
  <defs>
    <!-- The Egg Shape Path -->
    <path id="egg-outline" d="M256,40 C366,40 456,160 456,290 C456,420 366,480 256,480 C146,480 56,420 56,290 C56,160 146,40 256,40 Z" />
    
    <!-- Clip Path based on the Egg -->
    <clipPath id="clip-egg">
      <use href="#egg-outline"/>
    </clipPath>
  </defs>

  <!-- Internal Graphics (Clipped inside the egg) -->
  <g clip-path="url(#clip-egg)">
    <!-- Gradient background inside egg -->
    <defs>
      <linearGradient id="ocean-gradient" x1="0%" y1="0%" x2="0%" y2="100%">
        <stop offset="0%" style="stop-color:#5a8cb5;stop-opacity:1" />
        <stop offset="100%" style="stop-color:#2b5a7a;stop-opacity:1" />
      </linearGradient>
    </defs>
    
    <rect width="512" height="512" fill="url(#ocean-gradient)"/>

    <!-- Security Layer Lines (Bodega egg style - horizontal parallel lines) -->
    <line x1="56" y1="150" x2="456" y2="150" stroke="#F8F4E9" stroke-width="12" opacity="0.8"/>
    <line x1="56" y1="190" x2="456" y2="190" stroke="#F8F4E9" stroke-width="10" opacity="0.7"/>
    <line x1="56" y1="230" x2="456" y2="230" stroke="#F8F4E9" stroke-width="10" opacity="0.7"/>
    <line x1="56" y1="270" x2="456" y2="270" stroke="#F8F4E9" stroke-width="10" opacity="0.7"/>
    <line x1="56" y1="310" x2="456" y2="310" stroke="#F8F4E9" stroke-width="10" opacity="0.7"/>
    <line x1="56" y1="350" x2="456" y2="350" stroke="#F8F4E9" stroke-width="10" opacity="0.7"/>
    <line x1="56" y1="390" x2="456" y2="390" stroke="#F8F4E9" stroke-width="10" opacity="0.7"/>
    
    <!-- Golden accent line (Tide/wave crest) -->
    <line x1="56" y1="430" x2="456" y2="430" stroke="#F2B03D" stroke-width="16" opacity="0.9"/>
  </g>

  <!-- Main Outline (Stroked on top of everything) -->
  <use href="#egg-outline" fill="none" stroke="#131313" stroke-width="24" stroke-linecap="round" stroke-linejoin="round"/>

</svg>
